<?xml version="1.0" encoding="UTF-8"?>
<svg id="Layer_1" xmlns="http://www.w3.org/2000/svg" version="1.1" xmlns:xlink="http://www.w3.org/1999/xlink" viewBox="0 0 866.57 268.94">
  <!-- Generator: Adobe Illustrator 29.7.1, SVG Export Plug-In . SVG Version: 2.1.1 Build 8)  -->
  <defs>
    <style>
      .st0, .st1 {
        fill: #1a1a18;
      }

      .st0, .st2 {
        fill-rule: evenodd;
      }

      .st3 {
        fill: none;
      }

      .st2 {
        fill: #0086cd;
      }

      .st4 {
        clip-path: url(#clippath);
      }
    </style>
    <clipPath id="clippath">
      <rect class="st3" x="-2211.02" y="-503.64" width="6618.9" height="3585.83"/>
    </clipPath>
  </defs>
  <g class="st4">
    <path class="st1" d="M703.06,266.31v-69.84l42.7,41.06c1.16,1.16,2.33,2.39,3.54,3.71,1.19,1.32,2.44,2.8,3.76,4.45v-46.59h10.06v69.83l-43.54-41.82c-1.16-1.14-2.29-2.33-3.37-3.59-1.1-1.25-2.12-2.57-3.1-3.95v46.73h-10.06ZM690.54,232.85c0,4.78-.89,9.29-2.68,13.54-1.8,4.26-4.4,8.05-7.83,11.39-3.45,3.34-7.35,5.89-11.7,7.66-4.34,1.77-8.9,2.66-13.66,2.66s-9.45-.89-13.85-2.68c-4.39-1.8-8.26-4.34-11.62-7.64-3.43-3.34-6.03-7.11-7.8-11.34-1.77-4.22-2.66-8.74-2.66-13.58s.89-9.33,2.66-13.58c1.77-4.26,4.37-8.07,7.8-11.44,3.43-3.33,7.32-5.87,11.66-7.61,4.34-1.74,8.94-2.61,13.82-2.61s9.4.88,13.74,2.61c4.33,1.74,8.21,4.28,11.63,7.61,3.43,3.4,6.03,7.24,7.83,11.5,1.79,4.28,2.68,8.77,2.68,13.52ZM679.17,232.85c0-3.4-.63-6.62-1.87-9.68-1.24-3.05-3.02-5.78-5.34-8.16-2.27-2.36-4.89-4.17-7.86-5.44-2.99-1.27-6.14-1.91-9.43-1.91s-6.45.63-9.45,1.88c-2.98,1.25-5.64,3.07-7.96,5.47-2.32,2.35-4.1,5.06-5.33,8.12-1.22,3.06-1.84,6.3-1.84,9.73s.61,6.61,1.84,9.64c1.22,3.03,3.01,5.74,5.33,8.11,2.32,2.4,4.96,4.22,7.94,5.47,2.96,1.25,6.12,1.88,9.46,1.88s6.37-.63,9.34-1.88c2.95-1.25,5.61-3.07,7.96-5.47,2.32-2.38,4.1-5.09,5.34-8.13,1.24-3.06,1.87-6.25,1.87-9.62ZM595.03,266.31v-67.2h10.9v67.2h-10.9ZM568.73,208.41v57.9h-10.9v-57.9h-17.86v-9.3h46.53v9.3h-17.77ZM534.31,266.31l-7.61-17.29h-26.63l-7.8,17.29h-11.47l32.54-69.84,32.51,69.84h-11.53ZM504.11,239.9h18.73l-6.89-15.32c-.39-.97-.82-2.1-1.24-3.37-.42-1.27-.86-2.68-1.28-4.25-.36,1.47-.75,2.84-1.17,4.1-.41,1.27-.83,2.44-1.25,3.51l-6.89,15.32ZM447.53,236.24v30.08h-10.24v-67.2h15.23c4.47,0,7.92.3,10.4.88,2.46.58,4.56,1.53,6.29,2.88,2.09,1.63,3.68,3.73,4.83,6.3,1.13,2.57,1.69,5.37,1.69,8.44,0,5.37-1.3,9.59-3.9,12.64-2.6,3.04-6.44,4.87-11.52,5.48l23.12,30.58h-12.31l-22.37-30.08h-1.22ZM448.19,227.78h1.99c5.78,0,9.62-.67,11.51-2.02,1.9-1.35,2.85-3.72,2.85-7.16,0-3.7-1.02-6.3-3.06-7.82-2.03-1.52-5.81-2.27-11.31-2.27h-1.99v19.27ZM424.77,232.85c0,4.78-.89,9.29-2.68,13.54-1.8,4.26-4.4,8.05-7.83,11.39-3.45,3.34-7.35,5.89-11.7,7.66-4.34,1.77-8.9,2.66-13.66,2.66s-9.45-.89-13.85-2.68c-4.39-1.8-8.26-4.34-11.62-7.64-3.43-3.34-6.03-7.11-7.8-11.34-1.77-4.22-2.66-8.74-2.66-13.58s.89-9.33,2.66-13.58c1.77-4.26,4.37-8.07,7.8-11.44,3.43-3.33,7.32-5.87,11.66-7.61,4.34-1.74,8.94-2.61,13.82-2.61s9.4.88,13.74,2.61c4.33,1.74,8.21,4.28,11.63,7.61,3.43,3.4,6.03,7.24,7.83,11.5,1.79,4.28,2.68,8.77,2.68,13.52ZM413.4,232.85c0-3.4-.63-6.62-1.87-9.68-1.24-3.05-3.02-5.78-5.34-8.16-2.27-2.36-4.89-4.17-7.86-5.44-2.99-1.27-6.14-1.91-9.43-1.91s-6.45.63-9.45,1.88c-2.98,1.25-5.64,3.07-7.96,5.47-2.32,2.35-4.11,5.06-5.33,8.12-1.22,3.06-1.84,6.3-1.84,9.73s.61,6.61,1.84,9.64c1.22,3.03,3.01,5.74,5.33,8.11,2.32,2.4,4.96,4.22,7.94,5.47,2.96,1.25,6.12,1.88,9.46,1.88s6.37-.63,9.34-1.88c2.95-1.25,5.61-3.07,7.96-5.47,2.32-2.38,4.1-5.09,5.34-8.13,1.24-3.06,1.87-6.25,1.87-9.62ZM316.1,236.14v30.17h-10.24v-67.2h16.51c4.9,0,8.51.27,10.82.8,2.3.53,4.32,1.43,6.05,2.65,2.11,1.55,3.76,3.67,4.96,6.3,1.19,2.65,1.79,5.56,1.79,8.74s-.6,6.13-1.79,8.82c-1.2,2.69-2.85,4.81-4.96,6.33-1.73,1.22-3.74,2.1-6.05,2.62-2.32.52-5.92.78-10.82.78h-6.27ZM316.75,227.21h2.81c6.06,0,10.1-.66,12.12-1.98,2.02-1.32,3.03-3.63,3.03-6.97,0-3.57-1.08-6.09-3.25-7.56-2.14-1.46-6.12-2.19-11.9-2.19h-2.81v18.7ZM263.46,236.24v30.08h-10.24v-67.2h15.23c4.47,0,7.92.3,10.4.88,2.46.58,4.56,1.53,6.29,2.88,2.09,1.63,3.68,3.73,4.83,6.3,1.13,2.57,1.69,5.37,1.69,8.44,0,5.37-1.3,9.59-3.9,12.64-2.6,3.04-6.44,4.87-11.52,5.48l23.12,30.58h-12.31l-22.37-30.08h-1.22ZM264.12,227.78h1.99c5.78,0,9.62-.67,11.51-2.02,1.9-1.35,2.85-3.72,2.85-7.16,0-3.7-1.02-6.3-3.06-7.82-2.03-1.52-5.81-2.27-11.31-2.27h-1.99v19.27ZM240.7,232.85c0,4.78-.89,9.29-2.68,13.54-1.8,4.26-4.4,8.05-7.83,11.39-3.45,3.34-7.35,5.89-11.7,7.66-4.34,1.77-8.9,2.66-13.66,2.66s-9.45-.89-13.85-2.68c-4.39-1.8-8.26-4.34-11.62-7.64-3.43-3.34-6.03-7.11-7.8-11.34-1.77-4.22-2.66-8.74-2.66-13.58s.89-9.33,2.66-13.58c1.77-4.26,4.37-8.07,7.8-11.44,3.43-3.33,7.32-5.87,11.66-7.61,4.34-1.74,8.94-2.61,13.82-2.61s9.4.88,13.74,2.61c4.33,1.74,8.21,4.28,11.63,7.61,3.43,3.4,6.03,7.24,7.83,11.5,1.79,4.28,2.68,8.77,2.68,13.52ZM229.33,232.85c0-3.4-.63-6.62-1.87-9.68-1.24-3.05-3.02-5.78-5.34-8.16-2.27-2.36-4.89-4.17-7.86-5.44-2.99-1.27-6.14-1.91-9.43-1.91s-6.45.63-9.45,1.88c-2.98,1.25-5.64,3.07-7.96,5.47-2.32,2.35-4.1,5.06-5.32,8.12-1.22,3.06-1.84,6.3-1.84,9.73s.61,6.61,1.84,9.64c1.22,3.03,3.01,5.74,5.32,8.11,2.32,2.4,4.96,4.22,7.94,5.47,2.96,1.25,6.12,1.88,9.46,1.88s6.37-.63,9.33-1.88c2.95-1.25,5.61-3.07,7.96-5.47,2.32-2.38,4.11-5.09,5.34-8.13,1.24-3.06,1.87-6.25,1.87-9.62ZM158.26,215.46c-3.09-2.63-6.36-4.61-9.79-5.92-3.45-1.32-7.07-1.98-10.86-1.98-7.33,0-13.3,2.35-17.91,7.07-4.61,4.72-6.91,10.81-6.91,18.31s2.24,13.22,6.72,17.94c4.48,4.72,10.13,7.07,16.95,7.07,3.98,0,7.75-.7,11.36-2.11,3.59-1.41,7.04-3.53,10.34-6.38v12.35c-2.93,2.11-6.12,3.7-9.59,4.73-3.46,1.05-7.21,1.57-11.23,1.57-5.14,0-9.89-.85-14.24-2.52-4.37-1.69-8.19-4.17-11.5-7.44-3.27-3.21-5.78-7-7.55-11.36-1.76-4.35-2.63-9-2.63-13.93s.88-9.56,2.63-13.88c1.77-4.34,4.31-8.13,7.64-11.41,3.34-3.3,7.16-5.81,11.47-7.5,4.31-1.71,8.97-2.55,13.99-2.55,3.95,0,7.71.58,11.28,1.73,3.59,1.16,7.05,2.9,10.42,5.23l-.6,11Z"/>
    <path class="st2" d="M25.4,2.53c-9.51,1.24-15.71,12.23-9.51,21.35,5.79,8.08,17.36,5.8,29.76,5.8,22.73,0,48.77-1.04,71.5,0,26.45,1.45,20.67,32.55,20.67,51.41,0,33.58-12.81,31.3-41.33,31.3h-35.54c-11.57,0-24.8,2.28-30.59-5.39-6.61-8.5-1.24-19.69,7.44-21.77,9.51-2.28,60.34,1.24,71.92-.83,9.09-1.45,14.88-13.06,8.27-21.77-6.2-7.46-19.01-5.18-31-5.18h-36.37c-20.25,0-37.61,3.11-47.12,24.67-9.51,21.35,2.07,42.29,14.47,50.37,9.09,6.01,16.12,7.26,28.93,7.26h35.96c24.8,0,44.64,3.32,62.82-9.74,19.01-13.68,19.43-31.92,19.43-51.82,0-27.99,2.89-41.25-12.4-59.7C137.82.45,116.74,2.32,97.32,2.32c-11.16,0-66.13-.62-71.92.21"/>
    <path class="st2" d="M221.73,70.52c-3.72,4.56-18.19,9.12-33.89,32.34-2.48,3.94-10.33,16.38-10.75,22.18-.41,9.33,7.85,16.79,17.77,14.1,11.16-3.32,10.33-22.18,29.35-36.28,12.81-9.74,26.45-17.83,48.36-17.83,27.28,0,50.84,14.51,63.65,35.24,4.96,7.88,5.79,16.17,14.05,18.66,9.92,3.11,18.6-4.77,17.77-13.89-.41-9.12-11.99-24.25-17.36-31.3-4.13-4.98-11.99-12.23-17.36-15.96-2.48-1.87-8.27-5.18-9.51-7.05,13.23-7.26,25.63-19.49,33.89-31.72,2.48-3.73,9.92-16.58,10.33-22.18.41-9.12-7.85-16.38-17.36-13.89-11.99,3.52-9.09,19.9-29.35,36.28-12.4,9.74-26.87,17.83-47.94,18.03-27.69.21-50.84-14.3-64.06-35.03-4.55-7.26-6.2-15.96-13.64-18.86-9.51-3.73-18.6,3.73-18.6,12.65,0,15.13,28.52,48.3,44.64,54.52"/>
    <path class="st2" d="M421.36,2.94c-25.21,3.94-42.16,22.8-42.16,51.2,0,33.37-3.72,56.59,17.77,74.63,9.09,7.46,20.25,10.99,35.54,10.99,7.44,0,64.06.83,68.61-.83,5.79-1.87,9.92-7.46,9.09-14.72-2.07-15.34-21.08-11.82-35.55-11.82-15.29,0-30.59.21-45.88,0-15.29-.21-22.32-10.36-21.91-24.67,0-65.3-6.2-58.04,81.01-58.04,7.85,0,14.88.21,18.6-4.35,4.13-4.56,4.96-12.65.83-17.62-4.55-5.18-9.09-5.39-17.36-5.39-15.71,0-58.69-1.04-68.61.62"/>
    <path class="st0" d="M733.41,29.89c5.37-.62,41.74-.21,50.42-.21,21.08,0,52.49-5.8,52.9,22.18,0,11.4-.41,71.52.41,76.7,2.07,14.93,25.21,15.13,26.87-1.45,1.24-14.51,0-35.24,0-50.37s2.07-33.37-4.13-46.23c-16.12-32.55-44.64-28.19-73.16-28.19h-50.42c-35.96,0-30.17-1.66-30.17,71.52v50.37c0,19.07,21.49,19.9,26.45,6.63,2.07-5.8.83-87.69.83-100.95"/>
    <path class="st0" d="M571.8,2.73c-20.67,2.07-35.54,16.17-40.92,32.75-4.13,11.4-4.13,57.63-.83,69.24,4.96,17,19.84,31.51,39.26,34.41,6.61,1.04,65.72,1.04,73.57.41,20.25-2.28,35.13-16.58,40.92-32.96,3.72-11.19,3.72-58.04.41-69.65-5.37-17.21-20.25-31.3-40.09-34.2-6.2-.83-65.72-.83-72.33,0M641.24,7.5c19.01,1.45,33.07,15.13,38.02,30.47,2.89,9.33,2.89,55.76.41,65.09-4.96,16.17-18.6,29.44-37.2,31.51h-69.02c-19.01-1.24-33.48-14.72-38.44-30.06-2.89-9.95-3.31-55.14,0-65.71,4.13-15.96,18.6-29.23,37.2-31.3h69.02Z"/>
    <path class="st2" d="M433.76,58.08c-6.2,2.07-11.99,9.12-8.68,18.03,2.89,7.67,9.92,8.71,19.84,8.71,9.09,0,50.01,1.04,55.38-.83,6.61-2.07,11.57-9.12,8.68-17.41-2.89-8.08-9.51-9.12-19.43-9.12-9.09,0-50.84-1.04-55.8.62"/>
    <path class="st0" d="M571.39,25.33c-7.85,1.66-11.99,5.6-15.71,10.16-4.96,6.01-5.37,11.61-5.37,20.73.41,13.47-2.07,38.35,3.72,48.3,8.27,13.27,19.84,12.85,38.44,12.85,11.57,0,41.74,1.45,50.84-.62,7.44-1.66,12.4-6.22,15.29-10.16,4.96-6.43,5.37-11.19,5.37-20.52-.41-12.64,2.07-38.76-3.72-48.09-8.27-13.89-17.77-13.27-38.02-13.27-11.57,0-41.74-1.24-50.84.62M658.6,94.98c-3.72,17-17.36,17.41-28.93,17.41h-46.7c-8.27,0-12.81.21-18.6-4.15-4.13-3.11-7.85-7.46-8.68-14.72-.83-6.63-.83-40.84.41-46.64.83-6.43,4.96-10.99,9.09-13.68,6.2-4.15,11.16-3.52,19.84-3.52h46.7c13.23,0,25.63,4.15,26.87,19.28.41,6.43.83,41.04,0,46.02Z"/>
    <path class="st0" d="M679.68,103.07c2.48-9.33,2.48-55.76-.41-65.09-4.96-15.34-19.01-29.02-38.02-30.47h-69.02c-18.6,2.07-33.07,15.34-37.2,31.3-3.31,10.57-2.89,55.76,0,65.71,4.96,15.34,19.43,28.81,38.44,30.06h69.02c18.6-2.07,32.24-15.34,37.2-31.51M643.31,116.75c-9.09,2.07-39.26.62-50.84.62-18.6,0-30.17.41-38.44-12.85-5.79-9.95-3.31-34.83-3.72-48.3,0-9.12.41-14.72,5.37-20.73,3.72-4.56,7.85-8.5,15.71-10.16,9.09-1.87,39.26-.62,50.84-.62,20.25,0,29.76-.62,38.03,13.27,5.79,9.33,3.31,35.45,3.72,48.09,0,9.33-.41,14.1-5.37,20.52-2.89,3.94-7.85,8.5-15.29,10.16Z"/>
    <path class="st0" d="M684.32,69.38c.09,14.53-.56,29.4-1.9,34.39l-.03.1c-2.72,8.88-7.91,16.95-15.01,22.96-6.66,5.64-15,9.48-24.57,10.51l-.21.02h-69.35c-9.69-.62-18.26-4.23-25.15-9.63-7.49-5.86-12.98-13.85-15.74-22.4l-.02-.08c-1.57-5.4-2.44-20.24-2.44-34.75,0-13.63.77-27.17,2.45-32.58h0c2.25-8.65,7.35-16.54,14.42-22.48,6.82-5.73,15.47-9.67,25.15-10.75l.2-.02h69.32c9.63.74,18.1,4.44,24.89,9.88,7.45,5.96,12.89,14.02,15.65,22.53v.04c1.5,4.79,2.26,18.44,2.34,32.24M676.97,102.32c1.22-4.55,1.81-18.82,1.72-32.91-.08-13.28-.76-26.26-2.07-30.57h0c-2.44-7.52-7.23-14.63-13.8-19.88-5.91-4.73-13.27-7.95-21.66-8.62h-68.82c-8.46.99-16.01,4.43-21.95,9.43-6.22,5.22-10.69,12.14-12.62,19.7l-.03.13c-1.5,4.82-2.18,17.73-2.18,30.93,0,14.05.78,28.2,2.18,33.12,2.42,7.5,7.25,14.51,13.84,19.66,6,4.69,13.45,7.84,21.88,8.41h68.97c8.3-.94,15.53-4.29,21.32-9.19,6.25-5.29,10.82-12.39,13.24-20.21h0ZM604.16,114.77c13.63.3,32.06.71,38.52-.77h.01c2.93-.66,5.43-1.83,7.53-3.23,2.66-1.77,4.68-3.91,6.12-5.87l.04-.06c2.21-2.85,3.4-5.31,4.03-8.05.65-2.86.74-6.23.74-10.74h0c-.1-3.16-.02-7.11.06-11.42.25-12.78.56-28.87-3.4-35.16l-.03-.07c-7.07-11.88-15.55-11.87-33-11.85h-2.57c-2.39.01-6.76-.07-11.7-.17-13.63-.27-32.04-.64-38.53.68h0c-3.52.76-6.18,2-8.37,3.55-2.23,1.58-4.03,3.53-5.73,5.64l-.02.03c-2.17,2.62-3.34,5.15-3.96,8-.66,3.03-.75,6.56-.75,10.96h0c.1,3.41.02,7.51-.07,11.9-.25,12.77-.56,28.16,3.38,34.93h0c7.19,11.52,17.77,11.51,34.45,11.5h1.58c2.45-.01,6.77.08,11.67.19ZM643.94,119.5c-7.1,1.63-25.95,1.21-39.89.9-4.36-.1-8.21-.18-11.56-.18h0s-1.58-.01-1.58-.01c-18.63.01-30.43.02-39.28-14.24l-.04-.07c-4.72-8.12-4.4-24.38-4.13-37.87.08-4.35.16-8.4.07-11.72v-.08c-.01-4.74.1-8.59.88-12.15.82-3.74,2.33-7.02,5.13-10.41h0c1.98-2.44,4.1-4.73,6.83-6.67,2.78-1.97,6.13-3.54,10.47-4.47h.02c7.08-1.44,25.87-1.07,39.79-.79,4.34.09,8.17.16,11.59.16h0s2.57,0,2.57,0c19.56-.03,29.09-.04,37.8,14.54h0c4.85,7.71,4.52,24.73,4.26,38.25-.08,4.27-.16,8.17-.06,11.25v.09c.01,4.86-.1,8.55-.89,12-.81,3.54-2.3,6.65-5.02,10.18h0c-1.77,2.42-4.27,5.05-7.56,7.24-2.61,1.74-5.73,3.19-9.4,4.02h0Z"/>
  </g>
</svg>